<mxfile host="65bd71144e">
    <diagram name="Страница — 1" id="rm-tLRI3IolC6JDpZ9o5">
        <mxGraphModel dx="973" dy="664" grid="1" gridSize="10" guides="1" tooltips="1" connect="1" arrows="1" fold="1" page="1" pageScale="1" pageWidth="827" pageHeight="1169" math="0" shadow="0">
            <root>
                <mxCell id="0"/>
                <mxCell id="1" parent="0"/>
                <mxCell id="HtFeE2W3FKLRe4RivsSI-40" style="rounded=0;orthogonalLoop=1;jettySize=auto;html=1;exitX=1;exitY=0.3333333333333333;exitDx=0;exitDy=0;exitPerimeter=0;edgeStyle=elbowEdgeStyle;" parent="1" source="HtFeE2W3FKLRe4RivsSI-1" target="HtFeE2W3FKLRe4RivsSI-27" edge="1">
                    <mxGeometry relative="1" as="geometry"/>
                </mxCell>
                <mxCell id="HtFeE2W3FKLRe4RivsSI-1" value="Администратор магазина" style="shape=umlActor;verticalLabelPosition=bottom;verticalAlign=top;html=1;outlineConnect=0;" parent="1" vertex="1">
                    <mxGeometry x="70" y="650" width="30" height="60" as="geometry"/>
                </mxCell>
                <mxCell id="HtFeE2W3FKLRe4RivsSI-23" style="edgeStyle=orthogonalEdgeStyle;rounded=0;orthogonalLoop=1;jettySize=auto;html=1;exitX=1;exitY=0.3333333333333333;exitDx=0;exitDy=0;exitPerimeter=0;entryX=0;entryY=0.5;entryDx=0;entryDy=0;" parent="1" source="HtFeE2W3FKLRe4RivsSI-15" target="HtFeE2W3FKLRe4RivsSI-16" edge="1">
                    <mxGeometry relative="1" as="geometry"/>
                </mxCell>
                <mxCell id="HtFeE2W3FKLRe4RivsSI-15" value="Гость" style="shape=umlActor;verticalLabelPosition=bottom;verticalAlign=top;html=1;outlineConnect=0;" parent="1" vertex="1">
                    <mxGeometry x="50" y="30" width="30" height="60" as="geometry"/>
                </mxCell>
                <mxCell id="HtFeE2W3FKLRe4RivsSI-16" value="Вход / регистрация" style="ellipse;whiteSpace=wrap;html=1;" parent="1" vertex="1">
                    <mxGeometry x="260" y="30" width="140" height="40" as="geometry"/>
                </mxCell>
                <mxCell id="HtFeE2W3FKLRe4RivsSI-108" style="edgeStyle=orthogonalEdgeStyle;rounded=0;orthogonalLoop=1;jettySize=auto;html=1;exitX=1;exitY=0.5;exitDx=0;exitDy=0;entryX=0;entryY=0.5;entryDx=0;entryDy=0;" parent="1" source="HtFeE2W3FKLRe4RivsSI-17" target="HtFeE2W3FKLRe4RivsSI-107" edge="1">
                    <mxGeometry relative="1" as="geometry"/>
                </mxCell>
                <mxCell id="HtFeE2W3FKLRe4RivsSI-17" value="Просмотр каталога" style="ellipse;whiteSpace=wrap;html=1;" parent="1" vertex="1">
                    <mxGeometry x="194" y="200" width="140" height="40" as="geometry"/>
                </mxCell>
                <mxCell id="HtFeE2W3FKLRe4RivsSI-18" value="Поиск видеокассеты" style="ellipse;whiteSpace=wrap;html=1;" parent="1" vertex="1">
                    <mxGeometry x="194" y="290" width="140" height="40" as="geometry"/>
                </mxCell>
                <mxCell id="HtFeE2W3FKLRe4RivsSI-27" value="Управление видеокассетами" style="ellipse;whiteSpace=wrap;html=1;" parent="1" vertex="1">
                    <mxGeometry x="300" y="680" width="140" height="70" as="geometry"/>
                </mxCell>
                <mxCell id="HtFeE2W3FKLRe4RivsSI-97" style="edgeStyle=orthogonalEdgeStyle;rounded=0;orthogonalLoop=1;jettySize=auto;html=1;exitX=1;exitY=0.3333333333333333;exitDx=0;exitDy=0;exitPerimeter=0;" parent="1" source="HtFeE2W3FKLRe4RivsSI-32" target="HtFeE2W3FKLRe4RivsSI-96" edge="1">
                    <mxGeometry relative="1" as="geometry"/>
                </mxCell>
                <mxCell id="HtFeE2W3FKLRe4RivsSI-32" value="Пользователь" style="shape=umlActor;verticalLabelPosition=bottom;verticalAlign=top;html=1;outlineConnect=0;" parent="1" vertex="1">
                    <mxGeometry x="50" y="160" width="30" height="60" as="geometry"/>
                </mxCell>
                <mxCell id="HtFeE2W3FKLRe4RivsSI-38" value="Управление пользователями" style="ellipse;whiteSpace=wrap;html=1;" parent="1" vertex="1">
                    <mxGeometry x="300" y="570" width="140" height="70" as="geometry"/>
                </mxCell>
                <mxCell id="HtFeE2W3FKLRe4RivsSI-41" value="Добавление" style="ellipse;whiteSpace=wrap;html=1;" parent="1" vertex="1">
                    <mxGeometry x="480" y="670" width="140" height="50" as="geometry"/>
                </mxCell>
                <mxCell id="HtFeE2W3FKLRe4RivsSI-43" value="Удаление" style="ellipse;whiteSpace=wrap;html=1;" parent="1" vertex="1">
                    <mxGeometry x="480" y="810" width="140" height="40" as="geometry"/>
                </mxCell>
                <mxCell id="HtFeE2W3FKLRe4RivsSI-44" value="Редактирование" style="ellipse;whiteSpace=wrap;html=1;" parent="1" vertex="1">
                    <mxGeometry x="480" y="740" width="140" height="50" as="geometry"/>
                </mxCell>
                <mxCell id="HtFeE2W3FKLRe4RivsSI-45" value="Добавление" style="ellipse;whiteSpace=wrap;html=1;" parent="1" vertex="1">
                    <mxGeometry x="560" y="535" width="140" height="50" as="geometry"/>
                </mxCell>
                <mxCell id="HtFeE2W3FKLRe4RivsSI-46" value="Удаление" style="ellipse;whiteSpace=wrap;html=1;" parent="1" vertex="1">
                    <mxGeometry x="520" y="470" width="140" height="50" as="geometry"/>
                </mxCell>
                <mxCell id="HtFeE2W3FKLRe4RivsSI-47" value="Редактирование" style="ellipse;whiteSpace=wrap;html=1;" parent="1" vertex="1">
                    <mxGeometry x="510" y="400" width="140" height="50" as="geometry"/>
                </mxCell>
                <mxCell id="HtFeE2W3FKLRe4RivsSI-48" value="&amp;lt;&amp;lt;include&amp;gt;&amp;gt;" style="html=1;endArrow=open;verticalAlign=bottom;dashed=1;labelBackgroundColor=none;rounded=0;exitX=0.421;exitY=-0.043;exitDx=0;exitDy=0;exitPerimeter=0;" parent="1" source="HtFeE2W3FKLRe4RivsSI-38" target="HtFeE2W3FKLRe4RivsSI-47" edge="1">
                    <mxGeometry width="160" relative="1" as="geometry">
                        <mxPoint x="330" y="500" as="sourcePoint"/>
                        <mxPoint x="490" y="500" as="targetPoint"/>
                    </mxGeometry>
                </mxCell>
                <mxCell id="HtFeE2W3FKLRe4RivsSI-50" value="&amp;lt;&amp;lt;include&amp;gt;&amp;gt;" style="html=1;endArrow=open;verticalAlign=bottom;dashed=1;labelBackgroundColor=none;rounded=0;exitX=1;exitY=0;exitDx=0;exitDy=0;" parent="1" source="HtFeE2W3FKLRe4RivsSI-38" target="HtFeE2W3FKLRe4RivsSI-46" edge="1">
                    <mxGeometry width="160" relative="1" as="geometry">
                        <mxPoint x="390.06" y="585" as="sourcePoint"/>
                        <mxPoint x="501.06" y="443" as="targetPoint"/>
                    </mxGeometry>
                </mxCell>
                <mxCell id="HtFeE2W3FKLRe4RivsSI-51" value="&amp;lt;&amp;lt;include&amp;gt;&amp;gt;" style="html=1;endArrow=open;verticalAlign=bottom;dashed=1;labelBackgroundColor=none;rounded=0;" parent="1" source="HtFeE2W3FKLRe4RivsSI-38" target="HtFeE2W3FKLRe4RivsSI-45" edge="1">
                    <mxGeometry width="160" relative="1" as="geometry">
                        <mxPoint x="470" y="620" as="sourcePoint"/>
                        <mxPoint x="480.5" y="522.37" as="targetPoint"/>
                    </mxGeometry>
                </mxCell>
                <mxCell id="HtFeE2W3FKLRe4RivsSI-55" value="&amp;lt;&amp;lt;include&amp;gt;&amp;gt;" style="html=1;endArrow=open;verticalAlign=bottom;dashed=1;labelBackgroundColor=none;rounded=0;exitX=1;exitY=0;exitDx=0;exitDy=0;entryX=0;entryY=0.5;entryDx=0;entryDy=0;" parent="1" source="HtFeE2W3FKLRe4RivsSI-27" target="HtFeE2W3FKLRe4RivsSI-41" edge="1">
                    <mxGeometry width="160" relative="1" as="geometry">
                        <mxPoint x="437" y="595" as="sourcePoint"/>
                        <mxPoint x="575" y="575" as="targetPoint"/>
                    </mxGeometry>
                </mxCell>
                <mxCell id="HtFeE2W3FKLRe4RivsSI-58" value="&amp;lt;&amp;lt;include&amp;gt;&amp;gt;" style="html=1;endArrow=open;verticalAlign=bottom;dashed=1;labelBackgroundColor=none;rounded=0;entryX=0.064;entryY=0.3;entryDx=0;entryDy=0;entryPerimeter=0;" parent="1" source="HtFeE2W3FKLRe4RivsSI-27" target="HtFeE2W3FKLRe4RivsSI-43" edge="1">
                    <mxGeometry width="160" relative="1" as="geometry">
                        <mxPoint x="390" y="800" as="sourcePoint"/>
                        <mxPoint x="480" y="820" as="targetPoint"/>
                    </mxGeometry>
                </mxCell>
                <mxCell id="HtFeE2W3FKLRe4RivsSI-59" value="&amp;lt;&amp;lt;include&amp;gt;&amp;gt;" style="html=1;endArrow=open;verticalAlign=bottom;dashed=1;labelBackgroundColor=none;rounded=0;exitX=0.971;exitY=0.743;exitDx=0;exitDy=0;exitPerimeter=0;" parent="1" source="HtFeE2W3FKLRe4RivsSI-27" target="HtFeE2W3FKLRe4RivsSI-44" edge="1">
                    <mxGeometry width="160" relative="1" as="geometry">
                        <mxPoint x="390" y="770" as="sourcePoint"/>
                        <mxPoint x="451" y="775" as="targetPoint"/>
                    </mxGeometry>
                </mxCell>
                <mxCell id="HtFeE2W3FKLRe4RivsSI-74" style="rounded=0;orthogonalLoop=1;jettySize=auto;html=1;exitX=0;exitY=0.3333333333333333;exitDx=0;exitDy=0;exitPerimeter=0;entryX=1;entryY=0.5;entryDx=0;entryDy=0;edgeStyle=elbowEdgeStyle;" parent="1" source="HtFeE2W3FKLRe4RivsSI-65" target="HtFeE2W3FKLRe4RivsSI-47" edge="1">
                    <mxGeometry relative="1" as="geometry">
                        <mxPoint x="720" y="400" as="targetPoint"/>
                        <Array as="points">
                            <mxPoint x="720" y="410"/>
                            <mxPoint x="720" y="430"/>
                        </Array>
                    </mxGeometry>
                </mxCell>
                <mxCell id="HtFeE2W3FKLRe4RivsSI-75" style="edgeStyle=orthogonalEdgeStyle;rounded=0;orthogonalLoop=1;jettySize=auto;html=1;exitX=0;exitY=0.3333333333333333;exitDx=0;exitDy=0;exitPerimeter=0;entryX=1;entryY=0.5;entryDx=0;entryDy=0;" parent="1" source="HtFeE2W3FKLRe4RivsSI-65" target="HtFeE2W3FKLRe4RivsSI-46" edge="1">
                    <mxGeometry relative="1" as="geometry">
                        <Array as="points">
                            <mxPoint x="720" y="660"/>
                            <mxPoint x="720" y="495"/>
                        </Array>
                    </mxGeometry>
                </mxCell>
                <mxCell id="HtFeE2W3FKLRe4RivsSI-84" style="edgeStyle=orthogonalEdgeStyle;rounded=0;orthogonalLoop=1;jettySize=auto;html=1;exitX=0;exitY=0.3333333333333333;exitDx=0;exitDy=0;exitPerimeter=0;entryX=1;entryY=0.5;entryDx=0;entryDy=0;" parent="1" source="HtFeE2W3FKLRe4RivsSI-65" target="HtFeE2W3FKLRe4RivsSI-43" edge="1">
                    <mxGeometry relative="1" as="geometry">
                        <mxPoint x="640" y="830" as="targetPoint"/>
                        <Array as="points">
                            <mxPoint x="720" y="660"/>
                            <mxPoint x="720" y="830"/>
                        </Array>
                    </mxGeometry>
                </mxCell>
                <mxCell id="HtFeE2W3FKLRe4RivsSI-65" value="Система" style="shape=umlActor;verticalLabelPosition=bottom;verticalAlign=top;html=1;outlineConnect=0;" parent="1" vertex="1">
                    <mxGeometry x="780" y="640" width="30" height="60" as="geometry"/>
                </mxCell>
                <mxCell id="HtFeE2W3FKLRe4RivsSI-83" value="" style="endArrow=classic;html=1;rounded=0;entryX=1;entryY=0.5;entryDx=0;entryDy=0;" parent="1" target="HtFeE2W3FKLRe4RivsSI-45" edge="1">
                    <mxGeometry width="50" height="50" relative="1" as="geometry">
                        <mxPoint x="720" y="560" as="sourcePoint"/>
                        <mxPoint x="440" y="480" as="targetPoint"/>
                    </mxGeometry>
                </mxCell>
                <mxCell id="HtFeE2W3FKLRe4RivsSI-85" value="" style="endArrow=classic;html=1;rounded=0;entryX=1;entryY=0.5;entryDx=0;entryDy=0;" parent="1" target="HtFeE2W3FKLRe4RivsSI-41" edge="1">
                    <mxGeometry width="50" height="50" relative="1" as="geometry">
                        <mxPoint x="720" y="695" as="sourcePoint"/>
                        <mxPoint x="440" y="480" as="targetPoint"/>
                    </mxGeometry>
                </mxCell>
                <mxCell id="HtFeE2W3FKLRe4RivsSI-86" value="" style="endArrow=classic;html=1;rounded=0;entryX=1;entryY=0.5;entryDx=0;entryDy=0;" parent="1" target="HtFeE2W3FKLRe4RivsSI-44" edge="1">
                    <mxGeometry width="50" height="50" relative="1" as="geometry">
                        <mxPoint x="720" y="765" as="sourcePoint"/>
                        <mxPoint x="440" y="480" as="targetPoint"/>
                    </mxGeometry>
                </mxCell>
                <mxCell id="HtFeE2W3FKLRe4RivsSI-90" value="" style="endArrow=classic;html=1;rounded=0;entryX=1;entryY=0.5;entryDx=0;entryDy=0;edgeStyle=orthogonalEdgeStyle;" parent="1" target="HtFeE2W3FKLRe4RivsSI-16" edge="1">
                    <mxGeometry width="50" height="50" relative="1" as="geometry">
                        <mxPoint x="720" y="430" as="sourcePoint"/>
                        <mxPoint x="510" y="270" as="targetPoint"/>
                        <Array as="points">
                            <mxPoint x="720" y="50"/>
                        </Array>
                    </mxGeometry>
                </mxCell>
                <mxCell id="HtFeE2W3FKLRe4RivsSI-93" value="Заказ видеокассеты" style="ellipse;whiteSpace=wrap;html=1;" parent="1" vertex="1">
                    <mxGeometry x="374" y="300" width="140" height="40" as="geometry"/>
                </mxCell>
                <mxCell id="HtFeE2W3FKLRe4RivsSI-99" style="edgeStyle=orthogonalEdgeStyle;rounded=0;orthogonalLoop=1;jettySize=auto;html=1;entryX=0;entryY=0.5;entryDx=0;entryDy=0;" parent="1" source="HtFeE2W3FKLRe4RivsSI-96" target="HtFeE2W3FKLRe4RivsSI-17" edge="1">
                    <mxGeometry relative="1" as="geometry">
                        <mxPoint x="124" y="180" as="sourcePoint"/>
                    </mxGeometry>
                </mxCell>
                <mxCell id="HtFeE2W3FKLRe4RivsSI-96" value="&amp;nbsp;Выбор магазина" style="ellipse;whiteSpace=wrap;html=1;" parent="1" vertex="1">
                    <mxGeometry x="100" y="160" width="140" height="40" as="geometry"/>
                </mxCell>
                <mxCell id="HtFeE2W3FKLRe4RivsSI-103" value="&amp;lt;&amp;lt;extend&amp;gt;&amp;gt;" style="edgeStyle=none;html=1;startArrow=open;endArrow=none;startSize=12;verticalAlign=bottom;dashed=1;labelBackgroundColor=none;rounded=0;entryX=1;entryY=0.5;entryDx=0;entryDy=0;exitX=0;exitY=0.5;exitDx=0;exitDy=0;" parent="1" source="HtFeE2W3FKLRe4RivsSI-18" target="HtFeE2W3FKLRe4RivsSI-104" edge="1">
                    <mxGeometry width="160" relative="1" as="geometry">
                        <mxPoint x="190" y="310" as="sourcePoint"/>
                        <mxPoint x="264" y="320" as="targetPoint"/>
                    </mxGeometry>
                </mxCell>
                <mxCell id="HtFeE2W3FKLRe4RivsSI-104" value="Фильтрация" style="ellipse;whiteSpace=wrap;html=1;" parent="1" vertex="1">
                    <mxGeometry x="10" y="290" width="140" height="40" as="geometry"/>
                </mxCell>
                <mxCell id="HtFeE2W3FKLRe4RivsSI-105" value="&amp;lt;&amp;lt;extend&amp;gt;&amp;gt;" style="edgeStyle=none;html=1;startArrow=open;endArrow=none;startSize=12;verticalAlign=bottom;dashed=1;labelBackgroundColor=none;rounded=0;exitX=0.5;exitY=1;exitDx=0;exitDy=0;entryX=0.5;entryY=0;entryDx=0;entryDy=0;" parent="1" source="HtFeE2W3FKLRe4RivsSI-17" target="HtFeE2W3FKLRe4RivsSI-18" edge="1">
                    <mxGeometry width="160" relative="1" as="geometry">
                        <mxPoint x="274" y="250" as="sourcePoint"/>
                        <mxPoint x="264" y="280" as="targetPoint"/>
                    </mxGeometry>
                </mxCell>
                <mxCell id="HtFeE2W3FKLRe4RivsSI-106" value="Бронирование видеокассеты" style="ellipse;whiteSpace=wrap;html=1;" parent="1" vertex="1">
                    <mxGeometry x="374" y="110" width="140" height="40" as="geometry"/>
                </mxCell>
                <mxCell id="HtFeE2W3FKLRe4RivsSI-107" value="Страница кассеты" style="ellipse;whiteSpace=wrap;html=1;" parent="1" vertex="1">
                    <mxGeometry x="374" y="200" width="140" height="40" as="geometry"/>
                </mxCell>
                <mxCell id="HtFeE2W3FKLRe4RivsSI-114" value="Если кассеты нет в наличии в магазине" style="shape=note;size=15;spacingLeft=5;align=left;whiteSpace=wrap;" parent="1" vertex="1">
                    <mxGeometry x="464" y="250" width="230" height="40" as="geometry"/>
                </mxCell>
                <mxCell id="HtFeE2W3FKLRe4RivsSI-115" value="&amp;lt;&amp;lt;extend&amp;gt;&amp;gt;" style="align=right;html=1;verticalAlign=bottom;rounded=0;labelBackgroundColor=none;endArrow=open;endSize=12;dashed=1;exitX=0.5;exitY=0;exitDx=0;exitDy=0;" parent="1" source="HtFeE2W3FKLRe4RivsSI-93" target="HtFeE2W3FKLRe4RivsSI-107" edge="1">
                    <mxGeometry relative="1" as="geometry">
                        <mxPoint x="324" y="190" as="targetPoint"/>
                        <mxPoint x="484" y="190" as="sourcePoint"/>
                    </mxGeometry>
                </mxCell>
                <mxCell id="HtFeE2W3FKLRe4RivsSI-116" value="" style="edgeStyle=none;html=1;endArrow=none;rounded=0;labelBackgroundColor=none;dashed=1;exitX=0.004;exitY=0.667;exitDx=0;exitDy=0;exitPerimeter=0;" parent="1" source="HtFeE2W3FKLRe4RivsSI-114" edge="1">
                    <mxGeometry relative="1" as="geometry">
                        <mxPoint x="444" y="280" as="targetPoint"/>
                    </mxGeometry>
                </mxCell>
                <mxCell id="HtFeE2W3FKLRe4RivsSI-117" value="Если кассета есть в наличии в магазине" style="shape=note;size=15;spacingLeft=5;align=left;whiteSpace=wrap;" parent="1" vertex="1">
                    <mxGeometry x="474" y="150" width="230" height="40" as="geometry"/>
                </mxCell>
                <mxCell id="HtFeE2W3FKLRe4RivsSI-118" value="" style="edgeStyle=none;html=1;endArrow=none;rounded=0;labelBackgroundColor=none;dashed=1;exitX=0.004;exitY=0.667;exitDx=0;exitDy=0;exitPerimeter=0;" parent="1" source="HtFeE2W3FKLRe4RivsSI-117" edge="1">
                    <mxGeometry relative="1" as="geometry">
                        <mxPoint x="444" y="180" as="targetPoint"/>
                    </mxGeometry>
                </mxCell>
                <mxCell id="HtFeE2W3FKLRe4RivsSI-120" value="&amp;lt;&amp;lt;extend&amp;gt;&amp;gt;" style="align=right;html=1;verticalAlign=bottom;rounded=0;labelBackgroundColor=none;endArrow=open;endSize=12;dashed=1;exitX=0.5;exitY=0;exitDx=0;exitDy=0;entryX=0.5;entryY=1;entryDx=0;entryDy=0;" parent="1" source="HtFeE2W3FKLRe4RivsSI-107" target="HtFeE2W3FKLRe4RivsSI-106" edge="1">
                    <mxGeometry relative="1" as="geometry">
                        <mxPoint x="358" y="140" as="targetPoint"/>
                        <mxPoint x="358" y="200" as="sourcePoint"/>
                    </mxGeometry>
                </mxCell>
                <mxCell id="HtFeE2W3FKLRe4RivsSI-122" style="edgeStyle=elbowEdgeStyle;rounded=0;orthogonalLoop=1;jettySize=auto;html=1;entryX=0;entryY=0.5;entryDx=0;entryDy=0;exitX=1;exitY=0.3333333333333333;exitDx=0;exitDy=0;exitPerimeter=0;" parent="1" target="HtFeE2W3FKLRe4RivsSI-121" edge="1">
                    <mxGeometry relative="1" as="geometry">
                        <mxPoint x="290" y="850" as="targetPoint"/>
                        <mxPoint x="110" y="670" as="sourcePoint"/>
                        <Array as="points">
                            <mxPoint x="200" y="750"/>
                        </Array>
                    </mxGeometry>
                </mxCell>
                <mxCell id="HtFeE2W3FKLRe4RivsSI-121" value="Формирование&lt;br&gt;отчётов о использовании ресурсов магазина" style="ellipse;whiteSpace=wrap;html=1;" parent="1" vertex="1">
                    <mxGeometry x="240" y="860" width="150" height="80" as="geometry"/>
                </mxCell>
                <mxCell id="HtFeE2W3FKLRe4RivsSI-123" value="" style="endArrow=classic;html=1;rounded=0;entryX=0;entryY=0.5;entryDx=0;entryDy=0;edgeStyle=elbowEdgeStyle;" parent="1" target="HtFeE2W3FKLRe4RivsSI-38" edge="1">
                    <mxGeometry width="50" height="50" relative="1" as="geometry">
                        <mxPoint x="200" y="670" as="sourcePoint"/>
                        <mxPoint x="530" y="610" as="targetPoint"/>
                        <Array as="points">
                            <mxPoint x="200" y="630"/>
                        </Array>
                    </mxGeometry>
                </mxCell>
                <mxCell id="HtFeE2W3FKLRe4RivsSI-124" value="" style="endArrow=classic;html=1;rounded=0;entryX=1;entryY=0.5;entryDx=0;entryDy=0;edgeStyle=elbowEdgeStyle;elbow=vertical;" parent="1" target="HtFeE2W3FKLRe4RivsSI-121" edge="1">
                    <mxGeometry width="50" height="50" relative="1" as="geometry">
                        <mxPoint x="720" y="830" as="sourcePoint"/>
                        <mxPoint x="530" y="690" as="targetPoint"/>
                        <Array as="points">
                            <mxPoint x="560" y="900"/>
                        </Array>
                    </mxGeometry>
                </mxCell>
                <mxCell id="fW_WVC9L09nKjJstzb_B-1" style="rounded=0;orthogonalLoop=1;jettySize=auto;html=1;exitX=0;exitY=1;exitDx=0;exitDy=0;entryX=0.75;entryY=0.1;entryDx=0;entryDy=0;entryPerimeter=0;" parent="1" source="HtFeE2W3FKLRe4RivsSI-16" target="HtFeE2W3FKLRe4RivsSI-32" edge="1">
                    <mxGeometry relative="1" as="geometry">
                        <mxPoint x="90" y="60" as="sourcePoint"/>
                        <mxPoint x="270" y="60" as="targetPoint"/>
                    </mxGeometry>
                </mxCell>
                <mxCell id="2" value="d" style="edgeStyle=none;orthogonalLoop=1;jettySize=auto;html=1;" edge="1" parent="1">
                    <mxGeometry width="80" relative="1" as="geometry">
                        <mxPoint x="430" y="290" as="sourcePoint"/>
                        <mxPoint x="510" y="290" as="targetPoint"/>
                        <Array as="points"/>
                    </mxGeometry>
                </mxCell>
            </root>
        </mxGraphModel>
    </diagram>
</mxfile>